<?xml version="1.0" standalone="no"?>
<!DOCTYPE svg PUBLIC "-//W3C//DTD SVG 20010904//EN"
 "http://www.w3.org/TR/2001/REC-SVG-20010904/DTD/svg10.dtd">
<svg version="1.0" xmlns="http://www.w3.org/2000/svg"
 width="900.000000pt" height="900.000000pt" viewBox="0 0 900.000000 900.000000"
 preserveAspectRatio="xMidYMid meet">
<metadata>
Created by potrace 1.16, written by Peter Selinger 2001-2019
</metadata>
<g transform="translate(0.000000,900.000000) scale(0.100000,-0.100000)"
fill="#000000" stroke="none">
<path d="M2131 6004 l-1061 -1056 0 -439 0 -439 1065 0 1065 0 0 -535 0 -535
535 0 535 0 0 970 0 970 -1057 0 -1058 0 1060 1060 1060 1060 -541 0 -541 0
-1062 -1056z"/>
<path d="M4720 6523 l0 -538 530 530 530 530 0 -525 0 -525 -530 -530 -530
-530 0 -537 0 -538 1070 0 1070 0 0 541 0 541 -532 -526 -533 -526 -3 517 -2
518 535 535 535 535 0 533 0 532 -1070 0 -1070 0 0 -537z"/>
<path d="M4720 2480 l0 -530 45 0 45 0 0 530 0 530 -45 0 -45 0 0 -530z"/>
<path d="M6004 2791 c-23 -10 -54 -36 -70 -56 -24 -32 -29 -47 -29 -101 0 -75
17 -104 91 -150 27 -17 61 -43 77 -57 53 -50 23 -117 -54 -117 -35 0 -47 6
-74 35 l-33 34 -37 -45 -37 -45 23 -26 c41 -43 92 -63 161 -63 143 0 224 93
199 228 -10 52 -46 92 -119 134 -65 37 -86 66 -73 100 17 46 87 53 127 13 29
-29 38 -25 75 26 26 37 14 60 -44 88 -54 26 -128 27 -183 2z"/>
<path d="M7005 2801 c-113 -28 -199 -118 -231 -241 -36 -143 14 -270 131 -333
34 -19 56 -22 145 -22 122 0 167 16 238 86 65 65 86 117 90 229 4 89 2 99 -25
150 -31 60 -95 111 -161 130 -42 11 -142 12 -187 1z m167 -127 c75 -38 100
-153 54 -247 -29 -61 -66 -92 -130 -109 -56 -15 -111 0 -151 39 -36 37 -45 63
-45 132 0 153 143 250 272 185z"/>
<path d="M5306 2778 c-3 -13 -19 -131 -36 -263 -16 -132 -32 -255 -35 -272
l-6 -33 164 0 c184 0 177 -3 177 78 l0 32 -95 0 c-84 0 -95 2 -95 18 0 9 14
116 30 237 16 121 30 221 30 223 0 1 -29 2 -65 2 -59 0 -65 -2 -69 -22z"/>
<path d="M5700 2793 c0 -5 -16 -127 -35 -273 -19 -146 -35 -275 -35 -287 0
-21 4 -23 63 -23 l63 0 37 283 c21 155 37 288 37 295 0 8 -20 12 -65 12 -36 0
-65 -3 -65 -7z"/>
<path d="M6360 2793 c-1 -5 -18 -136 -38 -293 l-38 -285 110 -3 c132 -3 205
10 247 46 81 67 78 206 -4 246 -27 12 -28 14 -10 20 32 10 64 51 73 93 19 81
-27 153 -110 172 -52 12 -230 15 -230 4z m167 -344 c33 -12 43 -26 43 -61 0
-39 -42 -68 -97 -68 l-45 0 7 63 c4 34 9 65 12 70 6 10 47 9 80 -4z"/>
<path d="M7518 2511 c-82 -159 -148 -291 -148 -295 0 -3 32 -6 70 -6 l70 0 32
65 33 66 105 -3 104 -3 11 -60 10 -60 68 -3 c58 -3 67 -1 67 14 0 10 -30 143
-67 296 l-67 278 -71 0 -70 0 -147 -289z"/>
</g>
</svg>
